<svg width="637" height="398" viewBox="0 0 637 398" xmlns="http://www.w3.org/2000/svg" xmlns:xlink="http://www.w3.org/1999/xlink"><title>Rocket Illustration</title><defs><linearGradient x1="50%" y1="0%" x2="50%" y2="100%" id="linearGradient-1"><stop stop-color="#FFD22A" offset="0%"/><stop stop-color="#F7841C" offset="100%"/></linearGradient><linearGradient x1="50%" y1="0%" x2="50%" y2="100%" id="linearGradient-2"><stop stop-color="#FFB900" offset="0%"/><stop stop-color="#FF5300" offset="100%"/></linearGradient><linearGradient x1="50%" y1="0%" x2="50%" y2="100%" id="linearGradient-3"><stop stop-color="#FF6D00" offset="0%"/><stop stop-color="#FF2D00" offset="100%"/></linearGradient><linearGradient x1="50%" y1="0%" x2="50%" y2="100%" id="linearGradient-4"><stop stop-color="#F30" offset="0%"/><stop stop-color="#B30000" offset="100%"/></linearGradient><linearGradient x1="123.081%" y1="50%" x2="-19.847%" y2="50%" id="linearGradient-5"><stop stop-color="#292929" offset="0%"/><stop stop-color="#8E9599" offset="49.406%"/><stop stop-color="#313131" offset="100%"/></linearGradient><path id="path-6" d="M35.422 142.127H64.04l13.008 15.61H22.414z"/><mask id="mask-7" x="0" y="0" width="54.634" height="15.61" fill="#fff"><use xlink:href="#path-6"/></mask><linearGradient x1="123.081%" y1="50%" x2="-19.847%" y2="50%" id="linearGradient-8"><stop stop-color="#565F65" offset="0%"/><stop stop-color="#F1F4F5" offset="49.406%"/><stop stop-color="#B7C0C5" offset="100%"/></linearGradient><linearGradient x1="50%" y1="2.659%" x2="50%" y2="100%" id="linearGradient-9"><stop stop-color="#FFF" offset="0%"/><stop stop-color="#D7D7D7" offset="100%"/></linearGradient><path id="path-10" d="M71.845 85.31l27.39 38.532v28.685l-27.39-12.584z"/><mask id="mask-11" x="0" y="0" width="27.391" height="67.218" fill="#fff"><use xlink:href="#path-10"/></mask><path id="path-12" d="M.227 85.31l27.39 38.532v28.685L.228 139.943z"/><mask id="mask-13" x="0" y="0" width="27.391" height="67.218" fill="#fff"><use xlink:href="#path-12"/></mask><path d="M49.73 145.69H77.05S85.46 0 49.73 0C14 0 22.415 145.69 22.415 145.69H49.73z" id="path-14"/><mask id="mask-16" x="0" y="0" width="56.358" height="145.69" fill="#fff"><use xlink:href="#path-14"/></mask><linearGradient x1="50%" y1="0%" x2="50%" y2="100%" id="linearGradient-17"><stop stop-color="#B5EC45" offset="0%"/><stop stop-color="#53930C" offset="100%"/></linearGradient><path d="M22.63 16.918s11.198-2.6 27.303-2.6c16.104 0 26.9 2.6 26.9 2.6v23.415s-8.973-2.602-26.9-2.602-27.304 2.603-27.304 2.603V16.918z" id="path-18"/><mask id="mask-19" x="0" y="0" width="54.204" height="26.016" fill="#fff"><use xlink:href="#path-18"/></mask><path d="M22.63 42.934s11.198-2.6 27.303-2.6c16.104 0 26.9 2.6 26.9 2.6V53.34s-8.973-2.6-26.9-2.6-27.304 2.6-27.304 2.6V42.935z" id="path-20"/><mask id="mask-21" x="0" y="0" width="54.204" height="13.008" fill="#fff"><use xlink:href="#path-20"/></mask><radialGradient cy="0%" fx="50%" fy="0%" r="100%" id="radialGradient-22"><stop stop-color="#87C3E8" offset="0%"/><stop stop-color="#3192CF" offset="39.098%"/><stop stop-color="#175A84" offset="100%"/></radialGradient><path d="M125.48 240c.03-9.625 6.083-19.07 13.48-19.258-7.356.115-13.298-9.698-13.48-19.258.12 9.573-5.58 19.258-13.48 19.258 7.9 0 13.368 9.623 13.48 19.258z" id="path-23"/><mask id="mask-24" x="0" y="0" width="26.961" height="38.516" fill="#fff"><use xlink:href="#path-23"/></mask><path d="M358.175 161c.02-6.55 4.14-12.98 9.175-13.107-5.007.078-9.05-6.6-9.175-13.108.08 6.515-3.798 13.108-9.175 13.108 5.377 0 9.098 6.55 9.175 13.107z" id="path-25"/><mask id="mask-26" x="0" y="0" width="18.35" height="26.215" fill="#fff"><use xlink:href="#path-25"/></mask><path d="M582.364 288.743c.024-8.336 5.268-16.516 11.675-16.68-6.373.1-11.52-8.398-11.676-16.677.102 8.29-4.833 16.678-11.675 16.678 6.84 0 11.576 8.335 11.674 16.68z" id="path-27"/><mask id="mask-28" x="0" y="0" width="23.35" height="33.358" fill="#fff"><use xlink:href="#path-27"/></mask><path d="M427.906 273.195c.015-5.102 3.224-10.107 7.145-10.207-3.9.06-7.048-5.14-7.144-10.207.063 5.075-2.957 10.208-7.145 10.208 4.19 0 7.086 5.1 7.146 10.207z" id="path-29"/><mask id="mask-30" x="0" y="0" width="14.29" height="20.414" fill="#fff"><use xlink:href="#path-29"/></mask><path d="M447.906 15.737c.01-3.873 2.448-7.673 5.424-7.75-2.96.047-5.35-3.9-5.424-7.748.048 3.85-2.245 7.748-5.424 7.748 3.18 0 5.38 3.872 5.424 7.75z" id="path-31"/><mask id="mask-32" x="0" y="0" width="10.848" height="15.497" fill="#fff"><use xlink:href="#path-31"/></mask><path d="M8.906 321.695c.02-6.35 4.014-12.583 8.895-12.707-4.854.076-8.774-6.4-8.894-12.707.078 6.317-3.682 12.708-8.895 12.708 5.214 0 8.822 6.35 8.896 12.707z" id="path-33"/><mask id="mask-34" x="0" y="0" width="17.79" height="25.414" fill="#fff"><use xlink:href="#path-33"/></mask><path d="M210.4 90.8c.014-5.102 3.223-10.108 7.144-10.208-3.9.06-7.048-5.14-7.145-10.206.062 5.073-2.958 10.206-7.145 10.206 4.187 0 7.085 5.1 7.144 10.207z" id="path-35"/><mask id="mask-36" x="0" y="0" width="14.29" height="20.414" fill="#fff"><use xlink:href="#path-35"/></mask></defs><g id="Design" fill="none" fill-rule="evenodd"><g id="Artboard-1"><g id="Jumbotron"><g id="Rocket-Illustration"><g id="Trail"><path id="Rectangle-8" fill="#F00" d="M458.127 223.78l13.277 13.277L364.7 343.762l-13.277-13.277z"/><path id="Triangle-1-Copy-3" fill="#F00" d="M452.357 243.86l66.952-8.454-58.498-58.497z"/><path id="Triangle-1-Copy-2" fill="#FF5700" opacity=".855" d="M464.31 231.908l56.38-7.12-49.26-49.26z"/><path id="Triangle-1-Copy" fill="#FF9000" opacity=".854" d="M475.274 220.943l47.553-6.005-41.548-41.547z"/><path id="Triangle-1" fill="#FFC300" opacity=".85" d="M489.168 207.05l36.945-4.666-32.28-32.28z"/></g><g id="Billows"><path d="M492.935 84.097c.4 3.37.604 6.8.604 10.277 0 47.772-38.728 86.5-86.5 86.5-47.774 0-86.5-38.728-86.5-86.5 0-47.773 38.726-86.5 86.5-86.5 3.476 0 6.906.205 10.276.604-32.822 4.418-58.128 32.54-58.128 66.57 0 37.102 30.075 67.177 67.175 67.177 34.032 0 62.153-25.306 66.572-58.128z" id="Combined-Shape" fill="url(#linearGradient-1)" transform="translate(0 193.957)"/><path d="M450.045 204.043c27.746-17.096 47.35-46.13 51.652-79.944-14.324 33.753-47.773 57.427-86.75 57.427-52.025 0-94.198-42.173-94.198-94.197 0-38.978 23.673-72.427 57.427-86.75C323.88 7.486 281.9 53.857 281.9 110.032c0 39.747 21.016 74.585 52.54 94.01h115.605z" id="Combined-Shape" fill="url(#linearGradient-2)" transform="translate(0 193.957)"/><path d="M490.993 194.043a139.706 139.706 0 0 0 6.488-21.14 120.616 120.616 0 0 1-20.82 21.14h14.333zm-261.907 0c-6.348-16.035-9.837-33.513-9.837-51.806 0-67.224 47.113-123.444 110.122-137.442-28.564 21.917-46.98 56.4-46.98 95.185 0 38.13 17.8 72.102 45.54 94.063h-98.846z" id="Combined-Shape" fill="url(#linearGradient-3)" transform="translate(0 193.957)"/><path d="M337.422 204.043c-8.09-69.608-67.25-123.638-139.028-123.638-71.78 0-130.938 54.03-139.028 123.638h278.056z" id="Combined-Shape" fill="url(#linearGradient-4)" transform="translate(0 193.957)"/><path d="M116.535 204.043c-4.164-28.36-28.595-50.132-58.112-50.132-29.516 0-53.947 21.773-58.11 50.133h116.222zM619.377 204.043c-22.5-26.59-56.116-43.47-93.676-43.47-37.558 0-71.175 16.88-93.675 43.47h187.352z" id="Combined-Shape" fill="url(#linearGradient-4)" transform="translate(0 193.957)"/></g><g id="Rocket" transform="rotate(45 239.59 726.426)"><use id="Rectangle-5" stroke="#696D70" mask="url(#mask-7)" stroke-width="4" fill="url(#linearGradient-5)" xlink:href="#path-6"/><g id="Rectangle-3"><use fill="url(#linearGradient-8)" xlink:href="#path-10"/><use fill="#EAEEF1" xlink:href="#path-10"/><use stroke="#B7C2C8" mask="url(#mask-11)" stroke-width="4" fill="url(#linearGradient-9)" xlink:href="#path-10"/></g><g id="Rectangle-3-Copy" transform="matrix(-1 0 0 1 27.844 0)"><use fill="url(#linearGradient-8)" xlink:href="#path-12"/><use fill="#EAEEF1" xlink:href="#path-12"/><use stroke="#B7C2C8" mask="url(#mask-13)" stroke-width="4" fill="url(#linearGradient-9)" xlink:href="#path-12"/></g><mask id="mask-15" fill="#fff"><use xlink:href="#path-14"/></mask><g id="Mask"><use fill="url(#linearGradient-8)" xlink:href="#path-14"/><use fill="#EAEEF1" xlink:href="#path-14"/><use stroke="#B7C2C8" mask="url(#mask-16)" stroke-width="4" fill="url(#linearGradient-9)" xlink:href="#path-14"/></g><use mask="url(#mask-19)" xlink:href="#path-18" id="Rectangle-6" stroke-width="4" stroke="#46760D" fill="url(#linearGradient-17)"/><use mask="url(#mask-21)" xlink:href="#path-20" id="Rectangle-6-Copy" stroke-width="4" stroke="#46760D" fill="url(#linearGradient-17)"/><path d="M49.73 85.21c7.33 0 13.274-5.942 13.274-13.273 0-7.33-5.943-13.272-13.273-13.272s-13.27 5.942-13.27 13.272S42.4 85.21 49.73 85.21z" id="Oval-8" stroke="#175A84" stroke-width="2" fill="url(#radialGradient-22)" mask="url(#mask-15)"/></g><g id="Stars" transform="translate(43)" stroke="#95D6FF" stroke-width="4"><use id="Oval-11" mask="url(#mask-24)" xlink:href="#path-23"/><use id="Oval-11" mask="url(#mask-26)" xlink:href="#path-25"/><use id="Oval-11-Copy" mask="url(#mask-28)" xlink:href="#path-27"/><use id="Oval-11-Copy-2" mask="url(#mask-30)" xlink:href="#path-29"/><use id="Oval-11-Copy-4" mask="url(#mask-32)" xlink:href="#path-31"/><use id="Oval-11-Copy-5" mask="url(#mask-34)" xlink:href="#path-33"/><use id="Oval-11-Copy-3" mask="url(#mask-36)" xlink:href="#path-35"/></g></g></g></g></g></svg>