<?xml version="1.0" standalone="no"?>
<!DOCTYPE svg PUBLIC "-//W3C//DTD SVG 20010904//EN"
 "http://www.w3.org/TR/2001/REC-SVG-20010904/DTD/svg10.dtd">
<svg version="1.0" xmlns="http://www.w3.org/2000/svg"
 width="260.000000pt" height="260.000000pt" viewBox="0 0 260.000000 260.000000"
 preserveAspectRatio="xMidYMid meet">
<metadata>
Created by potrace 1.11, written by Peter Selinger 2001-2013
</metadata>
<g transform="translate(0.000000,260.000000) scale(0.100000,-0.100000)"
fill="#000000" stroke="none">
<path d="M2175 2446 c-117 -38 -221 -95 -400 -220 -67 -47 -336 -272 -458
-384 -91 -83 -103 -91 -155 -100 -31 -5 -148 -25 -259 -43 l-203 -33 -145
-146 -146 -147 159 -59 c153 -56 159 -59 146 -79 -13 -18 -10 -23 32 -66 54
-55 55 -54 -78 -64 -49 -4 -88 -10 -88 -13 0 -3 16 -22 35 -42 33 -34 34 -37
28 -93 l-6 -59 -78 78 c-87 86 -80 88 -94 -20 l-7 -49 -57 57 c-31 31 -59 56
-63 56 -3 0 -9 -32 -13 -71 l-7 -71 -69 68 c-38 38 -69 64 -69 59 0 -6 -20
-170 -45 -365 l-45 -354 -45 -46 -45 -46 0 -97 0 -97 97 0 c97 0 97 0 133 34
l35 34 375 47 c206 26 377 49 379 51 3 3 -24 33 -58 68 l-63 64 53 7 c99 12
98 10 34 75 -65 66 -68 61 39 75 l49 7 -78 78 -78 78 57 7 58 8 48 -48 c26
-26 50 -43 53 -38 2 4 8 55 12 111 l7 104 49 -48 c44 -44 51 -47 70 -36 23 15
19 22 89 -173 24 -66 46 -123 50 -127 3 -4 69 56 147 135 l142 142 44 262 45
263 56 62 c389 431 565 676 637 886 89 258 -50 402 -306 318z m228 -24 c58
-33 72 -65 72 -155 0 -45 -6 -94 -12 -109 l-12 -26 -143 141 c-156 155 -154
148 -63 167 53 12 121 4 158 -18z m-494 -239 c130 -108 361 -352 361 -381 0
-30 -23 -15 -77 51 -77 92 -208 223 -300 300 -40 33 -73 64 -73 68 0 21 37 5
89 -38z m-142 -125 c141 -112 383 -371 383 -409 -1 -40 -471 -547 -744 -802
l-149 -139 -254 254 c-139 139 -253 256 -253 259 0 15 373 400 522 539 136
128 404 360 414 360 1 0 38 -28 81 -62z m-797 -555 c-118 -120 -215 -220 -216
-221 -4 -6 -284 101 -284 107 0 4 55 61 122 128 l123 122 225 40 c124 21 229
40 234 40 5 1 -87 -97 -204 -216z m742 -610 l-39 -223 -124 -119 c-73 -70
-127 -114 -131 -108 -4 6 -28 69 -54 140 l-47 128 214 215 c118 118 215 209
217 202 1 -7 -15 -113 -36 -235z"/>
<path d="M1655 1884 c-110 -40 -165 -172 -116 -279 49 -105 166 -152 266 -106
144 66 170 245 51 349 -58 50 -127 63 -201 36z"/>
</g>
</svg>
