<?xml version="1.0" encoding="UTF-8" standalone="no"?>
<svg width="637px" height="398px" viewBox="0 0 637 398" version="1.1" xmlns="http://www.w3.org/2000/svg" xmlns:xlink="http://www.w3.org/1999/xlink">
    <!-- Generator: Sketch 3.7.1 (28215) - http://www.bohemiancoding.com/sketch -->
    <title>Rocket Illustration</title>
    <desc>Created with Sketch.</desc>
    <defs>
        <linearGradient x1="50%" y1="0%" x2="50%" y2="100%" id="linearGradient-1">
            <stop stop-color="#FFD22A" offset="0%"></stop>
            <stop stop-color="#F7841C" offset="100%"></stop>
        </linearGradient>
        <linearGradient x1="50%" y1="0%" x2="50%" y2="100%" id="linearGradient-2">
            <stop stop-color="#FFB900" offset="0%"></stop>
            <stop stop-color="#FF5300" offset="100%"></stop>
        </linearGradient>
        <linearGradient x1="50%" y1="0%" x2="50%" y2="100%" id="linearGradient-3">
            <stop stop-color="#FF6D00" offset="0%"></stop>
            <stop stop-color="#FF2D00" offset="100%"></stop>
        </linearGradient>
        <linearGradient x1="50%" y1="0%" x2="50%" y2="100%" id="linearGradient-4">
            <stop stop-color="#FF3300" offset="0%"></stop>
            <stop stop-color="#B30000" offset="100%"></stop>
        </linearGradient>
        <linearGradient x1="123.080852%" y1="50%" x2="-19.8474434%" y2="50%" id="linearGradient-5">
            <stop stop-color="#292929" offset="0%"></stop>
            <stop stop-color="#8E9599" offset="49.4060906%"></stop>
            <stop stop-color="#313131" offset="100%"></stop>
        </linearGradient>
        <polygon id="path-6" points="35.4223775 142.127355 64.0399598 142.127355 77.0479517 157.736946 22.4143855 157.736946"></polygon>
        <mask id="mask-7" maskContentUnits="userSpaceOnUse" maskUnits="objectBoundingBox" x="0" y="0" width="54.6335662" height="15.6095903" fill="white">
            <use xlink:href="#path-6"></use>
        </mask>
        <linearGradient x1="123.080852%" y1="50%" x2="-19.8474434%" y2="50%" id="linearGradient-8">
            <stop stop-color="#565F65" offset="0%"></stop>
            <stop stop-color="#F1F4F5" offset="49.4060906%"></stop>
            <stop stop-color="#B7C0C5" offset="100%"></stop>
        </linearGradient>
        <linearGradient x1="50%" y1="2.65864158%" x2="50%" y2="100%" id="linearGradient-9">
            <stop stop-color="#FFFFFF" offset="0%"></stop>
            <stop stop-color="#D7D7D7" offset="100%"></stop>
        </linearGradient>
        <polygon id="path-10" points="71.8447549 85.3093875 99.2357818 123.842073 99.2357818 152.527242 71.8447549 139.942954"></polygon>
        <mask id="mask-11" maskContentUnits="userSpaceOnUse" maskUnits="objectBoundingBox" x="0" y="0" width="27.3910269" height="67.2178546" fill="white">
            <use xlink:href="#path-10"></use>
        </mask>
        <polygon id="path-12" points="0.22655543 85.3093875 27.6175823 123.842073 27.6175823 152.527242 0.22655543 139.942954"></polygon>
        <mask id="mask-13" maskContentUnits="userSpaceOnUse" maskUnits="objectBoundingBox" x="0" y="0" width="27.3910269" height="67.2178546" fill="white">
            <use xlink:href="#path-12"></use>
        </mask>
        <path d="M49.7311686,145.68951 L77.0479517,145.68951 C77.0479517,145.68951 85.4613155,-4.94707422e-13 49.7311686,-4.8316906e-13 C14.0010217,-4.71500578e-13 22.4143855,145.68951 22.4143855,145.68951 L49.7311686,145.68951 Z" id="path-14"></path>
        <mask id="mask-16" maskContentUnits="userSpaceOnUse" maskUnits="objectBoundingBox" x="0" y="0" width="56.3583709" height="145.68951" fill="white">
            <use xlink:href="#path-14"></use>
        </mask>
        <linearGradient x1="50%" y1="0%" x2="50%" y2="100%" id="linearGradient-17">
            <stop stop-color="#B5EC45" offset="0%"></stop>
            <stop stop-color="#53930C" offset="100%"></stop>
        </linearGradient>
        <path d="M22.6294046,16.9184116 C22.6294046,16.9184116 33.8284197,14.3168132 49.9329544,14.3168132 C66.0374891,14.3168132 76.8329327,16.9184116 76.8329327,16.9184116 L76.8329327,40.3327971 C76.8329327,40.3327971 67.8603864,37.7311987 49.9329544,37.7311987 C32.0055224,37.7311987 22.6294046,40.3327971 22.6294046,40.3327971 L22.6294046,16.9184116 Z" id="path-18"></path>
        <mask id="mask-19" maskContentUnits="userSpaceOnUse" maskUnits="objectBoundingBox" x="0" y="0" width="54.2035281" height="26.0159839" fill="white">
            <use xlink:href="#path-18"></use>
        </mask>
        <path d="M22.6294046,42.9343955 C22.6294046,42.9343955 33.8284197,40.3327971 49.9329544,40.3327971 C66.0374891,40.3327971 76.8329327,42.9343955 76.8329327,42.9343955 L76.8329327,53.3407891 C76.8329327,53.3407891 67.8603864,50.7391907 49.9329544,50.7391907 C32.0055224,50.7391907 22.6294046,53.3407891 22.6294046,53.3407891 L22.6294046,42.9343955 Z" id="path-20"></path>
        <mask id="mask-21" maskContentUnits="userSpaceOnUse" maskUnits="objectBoundingBox" x="0" y="0" width="54.2035281" height="13.007992" fill="white">
            <use xlink:href="#path-20"></use>
        </mask>
        <radialGradient cx="50%" cy="0%" fx="50%" fy="0%" r="100%" id="radialGradient-22">
            <stop stop-color="#87C3E8" offset="0%"></stop>
            <stop stop-color="#3192CF" offset="39.0983737%"></stop>
            <stop stop-color="#175A84" offset="100%"></stop>
        </radialGradient>
        <path d="M125.480469,240 C125.508678,230.374855 131.563417,220.930252 138.960938,220.742188 C131.603851,220.856907 125.661951,211.043697 125.480469,201.484375 C125.598949,211.056862 119.900593,220.742188 112,220.742188 C119.900593,220.742188 125.36763,230.365452 125.480469,240 Z" id="path-23"></path>
        <mask id="mask-24" maskContentUnits="userSpaceOnUse" maskUnits="objectBoundingBox" x="0" y="0" width="26.9609375" height="38.515625" fill="white">
            <use xlink:href="#path-23"></use>
        </mask>
        <path d="M358.175195,161 C358.194396,154.448849 362.315425,148.02058 367.350391,147.892578 C362.342946,147.970659 358.298717,141.291506 358.175195,134.785156 C358.255837,141.300467 354.377371,147.892578 349,147.892578 C354.377371,147.892578 358.098394,154.442449 358.175195,161 Z" id="path-25"></path>
        <mask id="mask-26" maskContentUnits="userSpaceOnUse" maskUnits="objectBoundingBox" x="0" y="0" width="18.3503906" height="26.2148438" fill="white">
            <use xlink:href="#path-25"></use>
        </mask>
        <path d="M582.363867,288.743304 C582.388299,280.407136 587.632201,272.227333 594.039062,272.064453 C587.66722,272.16381 582.521046,263.664763 582.363867,255.385603 C582.466481,263.676164 577.531235,272.064453 570.688672,272.064453 C577.531235,272.064453 582.26614,280.398992 582.363867,288.743304 Z" id="path-27"></path>
        <mask id="mask-28" maskContentUnits="userSpaceOnUse" maskUnits="objectBoundingBox" x="0" y="0" width="23.3503906" height="33.3577009" fill="white">
            <use xlink:href="#path-27"></use>
        </mask>
        <path d="M427.906032,273.194851 C427.920983,268.093444 431.130045,263.087726 435.050792,262.98805 C431.151476,263.048853 428.002219,257.84777 427.906032,252.78125 C427.968828,257.854747 424.948651,262.98805 420.761272,262.98805 C424.948651,262.98805 427.846226,268.08846 427.906032,273.194851 Z" id="path-29"></path>
        <mask id="mask-30" maskContentUnits="userSpaceOnUse" maskUnits="objectBoundingBox" x="0" y="0" width="14.2895206" height="20.4136008" fill="white">
            <use xlink:href="#path-29"></use>
        </mask>
        <path d="M447.906032,15.7366956 C447.917383,11.8638864 450.35359,8.06372076 453.330084,7.9880504 C450.369859,8.03420932 447.979054,4.08572975 447.906032,0.239405169 C447.953704,4.09102667 445.660892,7.9880504 442.48198,7.9880504 C445.660892,7.9880504 447.86063,11.8601029 447.906032,15.7366956 Z" id="path-31"></path>
        <mask id="mask-32" maskContentUnits="userSpaceOnUse" maskUnits="objectBoundingBox" x="0" y="0" width="10.8481033" height="15.4972905" fill="white">
            <use xlink:href="#path-31"></use>
        </mask>
        <path d="M8.90603196,321.694839 C8.92464542,315.343927 12.9197144,309.11214 17.800784,308.98805 C12.9463937,309.063745 9.02577855,302.588743 8.90603196,296.281262 C8.98420849,302.597429 5.22428959,308.98805 0.0112799218,308.98805 C5.22428959,308.98805 8.83157812,315.337722 8.90603196,321.694839 Z" id="path-33"></path>
        <mask id="mask-34" maskContentUnits="userSpaceOnUse" maskUnits="objectBoundingBox" x="0" y="0" width="17.7895041" height="25.4135772" fill="white">
            <use xlink:href="#path-33"></use>
        </mask>
        <path d="M210.399472,90.7992035 C210.414423,85.6977968 213.623485,80.6920789 217.544232,80.5924031 C213.644915,80.6532053 210.495659,75.4521228 210.399472,70.3856027 C210.462268,75.4591001 207.442091,80.5924031 203.254712,80.5924031 C207.442091,80.5924031 210.339666,85.692813 210.399472,90.7992035 Z" id="path-35"></path>
        <mask id="mask-36" maskContentUnits="userSpaceOnUse" maskUnits="objectBoundingBox" x="0" y="0" width="14.2895206" height="20.4136008" fill="white">
            <use xlink:href="#path-35"></use>
        </mask>
    </defs>
    <g id="Design" stroke="none" stroke-width="1" fill="none" fill-rule="evenodd">
        <g id="Artboard-1" transform="translate(-587.000000, -104.000000)">
            <g id="Jumbotron" transform="translate(-47.000000, 40.000000)">
                <g id="Rocket-Illustration" transform="translate(47.000000, 64.000000)">
                    <g id="Trail" transform="translate(1021.241017, 262.056206) rotate(-315.000000) translate(-1021.241017, -262.056206) translate(979.241017, 154.556206)">
                        <rect id="Rectangle-8" fill="#FF0000" x="31.8245752" y="63.5446213" width="18.7757391" height="150.903378"></rect>
                        <polygon id="Triangle-1-Copy-3" fill="#FF0000" transform="translate(41.943613, 55.163711) scale(1, -1) translate(-41.943613, -55.163711) " points="41.9436133 28.5033762 83.3073033 81.8240456 0.579923356 81.8240456"></polygon>
                        <polygon id="Triangle-1-Copy-2" fill="#FF5700" opacity="0.854652519" transform="translate(41.943613, 42.468934) scale(1, -1) translate(-41.943613, -42.468934) " points="41.9436133 20.0180948 76.7762432 64.9197741 7.11098347 64.9197741"></polygon>
                        <polygon id="Triangle-1-Copy" fill="#FF9000" opacity="0.854477612" transform="translate(41.943613, 30.478385) scale(1, -1) translate(-41.943613, -30.478385) " points="41.9436133 11.5429223 71.3221123 49.4138481 12.5651143 49.4138481"></polygon>
                        <polygon id="Triangle-1" fill="#FFC300" opacity="0.85" transform="translate(41.943613, 15.054064) scale(1, -1) translate(-41.943613, -15.054064) " points="41.9436133 0.342583958 64.7685742 29.7655439 19.1186524 29.7655439"></polygon>
                    </g>
                    <g id="Billows" transform="translate(587.000000, 193.957031)">
                        <path d="M492.934973,84.0971734 C493.333884,87.4671346 493.539062,90.8964642 493.539062,94.3737158 C493.539062,142.146347 454.811693,180.873716 407.039062,180.873716 C359.266432,180.873716 320.539062,142.146347 320.539062,94.3737158 C320.539062,46.6010849 359.266432,7.87371578 407.039062,7.87371578 C410.516314,7.87371578 413.945644,8.0788943 417.315605,8.47780504 C384.494162,12.8964308 359.1875,41.0176201 359.1875,75.049497 C359.1875,112.149657 389.263122,142.225278 426.363281,142.225278 C460.395158,142.225278 488.516348,116.918616 492.934974,84.0971678 Z" id="Combined-Shape" fill="url(#linearGradient-1)"></path>
                        <path d="M450.044562,204.042969 C477.790516,186.947052 497.395379,157.911632 501.69726,124.098596 C487.373037,157.852736 453.92426,181.527344 414.945981,181.527344 C362.922268,181.527344 320.748716,139.353791 320.748716,87.3300781 C320.748716,48.3517997 344.423324,14.9030222 378.177489,0.578796644 C323.878783,7.48697789 281.900404,53.8578093 281.900404,110.033217 C281.900404,149.779972 302.915752,184.618331 334.441125,204.04297 L450.044562,204.042969 Z" id="Combined-Shape" fill="url(#linearGradient-2)"></path>
                        <path d="M490.992698,194.042969 C493.686066,187.240509 495.864732,180.178165 497.480661,172.903969 C491.437901,180.779574 484.439725,187.883665 476.659408,194.042969 L490.992698,194.042969 Z M229.086344,194.042971 C222.737626,178.008442 219.248715,160.52993 219.248715,142.236538 C219.248715,75.012559 266.362709,18.7926427 329.37209,4.79539733 C300.808376,26.7116403 282.393246,61.1955149 282.393246,99.9804736 C282.393246,138.109562 300.190827,172.081802 327.931762,194.042969 L229.086331,194.042969 Z" id="Combined-Shape" fill="url(#linearGradient-3)"></path>
                        <path d="M337.42194,204.042969 C329.332398,134.434537 270.172834,80.4049524 198.393985,80.4049524 C126.615136,80.4049524 67.4555718,134.434537 59.3660297,204.042969 L337.42194,204.042969 Z" id="Combined-Shape" fill="url(#linearGradient-4)"></path>
                        <path d="M116.534624,204.042969 C112.370982,175.68281 87.9396282,153.911371 58.4232818,153.911371 C28.9069354,153.911371 4.47558116,175.68281 0.311939444,204.042969 L116.534624,204.042969 Z" id="Combined-Shape" fill="url(#linearGradient-4)"></path>
                        <path d="M619.37747,204.042969 C596.877081,177.454068 563.260527,160.572935 525.701172,160.572935 C488.141817,160.572935 454.525262,177.454068 432.024873,204.042969 L619.37747,204.042969 Z" id="Combined-Shape" fill="url(#linearGradient-4)"></path>
                    </g>
                    <g id="Rocket" transform="translate(1150.328437, 134.567216) rotate(-315.000000) translate(-1150.328437, -134.567216) translate(1100.328437, 55.567216)">
                        <use id="Rectangle-5" stroke="#696D70" mask="url(#mask-7)" stroke-width="4" fill="url(#linearGradient-5)" xlink:href="#path-6"></use>
                        <g id="Rectangle-3">
                            <use fill="url(#linearGradient-8)" xlink:href="#path-10"></use>
                            <use fill="#EAEEF1" xlink:href="#path-10"></use>
                            <use stroke="#B7C2C8" mask="url(#mask-11)" stroke-width="4" fill="url(#linearGradient-9)" xlink:href="#path-10"></use>
                        </g>
                        <g id="Rectangle-3-Copy" transform="translate(13.922069, 118.918315) scale(-1, 1) translate(-13.922069, -118.918315) ">
                            <use fill="url(#linearGradient-8)" xlink:href="#path-12"></use>
                            <use fill="#EAEEF1" xlink:href="#path-12"></use>
                            <use stroke="#B7C2C8" mask="url(#mask-13)" stroke-width="4" fill="url(#linearGradient-9)" xlink:href="#path-12"></use>
                        </g>
                        <mask id="mask-15" fill="white">
                            <use xlink:href="#path-14"></use>
                        </mask>
                        <g id="Mask">
                            <use fill="url(#linearGradient-8)" xlink:href="#path-14"></use>
                            <use fill="#EAEEF1" xlink:href="#path-14"></use>
                            <use stroke="#B7C2C8" mask="url(#mask-16)" stroke-width="4" fill="url(#linearGradient-9)" xlink:href="#path-14"></use>
                        </g>
                        <g id="Rectangle-6" mask="url(#mask-15)" stroke-width="4" stroke="#46760D" fill="url(#linearGradient-17)">
                            <use mask="url(#mask-19)" xlink:href="#path-18"></use>
                        </g>
                        <g id="Rectangle-6-Copy" mask="url(#mask-15)" stroke-width="4" stroke="#46760D" fill="url(#linearGradient-17)">
                            <use mask="url(#mask-21)" xlink:href="#path-20"></use>
                        </g>
                        <path d="M49.7311686,85.2098135 C57.0612981,85.2098135 63.0035421,79.2675695 63.0035421,71.93744 C63.0035421,64.6073105 57.0612981,58.6650665 49.7311686,58.6650665 C42.4010391,58.6650665 36.4587951,64.6073105 36.4587951,71.93744 C36.4587951,79.2675695 42.4010391,85.2098135 49.7311686,85.2098135 Z" id="Oval-8" stroke="#175A84" stroke-width="2" fill="url(#radialGradient-22)" mask="url(#mask-15)"></path>
                    </g>
                    <g id="Stars" transform="translate(630.000000, 0.000000)" stroke="#95D6FF" stroke-width="4">
                        <use id="Oval-11" mask="url(#mask-24)" xlink:href="#path-23"></use>
                        <use id="Oval-11" mask="url(#mask-26)" xlink:href="#path-25"></use>
                        <use id="Oval-11-Copy" mask="url(#mask-28)" xlink:href="#path-27"></use>
                        <use id="Oval-11-Copy-2" mask="url(#mask-30)" xlink:href="#path-29"></use>
                        <use id="Oval-11-Copy-4" mask="url(#mask-32)" xlink:href="#path-31"></use>
                        <use id="Oval-11-Copy-5" mask="url(#mask-34)" xlink:href="#path-33"></use>
                        <use id="Oval-11-Copy-3" mask="url(#mask-36)" xlink:href="#path-35"></use>
                    </g>
                </g>
            </g>
        </g>
    </g>
</svg>